<?xml version="1.0" encoding="UTF-8"?>
<svg version="1.1" xmlns="http://www.w3.org/2000/svg" width="28" height="57">
<path d="M0 0 C2.375 0.5 2.375 0.5 4 1 C4 2.65 4 4.3 4 6 C4.66 6 5.32 6 6 6 C6.495 13.92 6.495 13.92 7 22 C7.66 22 8.32 22 9 22 C8.67 23.32 8.34 24.64 8 26 C8.99 25.67 9.98 25.34 11 25 C9.95652174 31.26086957 9.95652174 31.26086957 8 34 C5.375 34.75 5.375 34.75 3 35 C2.95101563 35.71027344 2.90203125 36.42054687 2.8515625 37.15234375 C2.77679687 38.07144531 2.70203125 38.99054687 2.625 39.9375 C2.55539063 40.85402344 2.48578125 41.77054688 2.4140625 42.71484375 C2.27742188 43.46894531 2.14078125 44.22304688 2 45 C1.01 45.495 1.01 45.495 0 46 C0 47.65 0 49.3 0 51 C-1.485 50.505 -1.485 50.505 -3 50 C-3 51.32 -3 52.64 -3 54 C-3.99 53.67 -4.98 53.34 -6 53 C-5.67 52.01 -5.34 51.02 -5 50 C-5.66 50 -6.32 50 -7 50 C-7.02578125 49.01257812 -7.0515625 48.02515625 -7.078125 47.0078125 C-7.13484375 45.72648437 -7.1915625 44.44515625 -7.25 43.125 C-7.29640625 41.84882812 -7.3428125 40.57265625 -7.390625 39.2578125 C-7.62128548 35.93595687 -7.62128548 35.93595687 -9.91015625 34.64453125 C-10.59980469 34.43183594 -11.28945312 34.21914063 -12 34 C-14.98077914 32.04120228 -15.84247385 31.47257844 -17 28 C-16.1654738 25.49642139 -15.20628008 23.33214148 -14 21 C-11.525 22.98 -11.525 22.98 -9 25 C-9.66 24.01 -10.32 23.02 -11 22 C-12.26237731 19.47524538 -12.09856404 17.68799534 -12.0625 14.875 C-12.05347656 13.96492187 -12.04445313 13.05484375 -12.03515625 12.1171875 C-12.02355469 11.41851562 -12.01195312 10.71984375 -12 10 C-11.34 10 -10.68 10 -10 10 C-10.0825 9.0925 -10.165 8.185 -10.25 7.25 C-10 4 -10 4 -8.375 1.625 C-5.33456004 -0.45530103 -3.6229349 -0.37738905 0 0 Z M-3 10 C-2 12 -2 12 -2 12 Z M-4 14 C-3 16 -3 16 -3 16 Z M5 20 C6 22 6 22 6 22 Z M-2 26 C-1.34 26.66 -0.68 27.32 0 28 C1.98 27.01 3.96 26.02 6 25 C2.37673261 23.7922442 1.35853631 24.45688872 -2 26 Z M-15 26 C-14.01 27.485 -14.01 27.485 -13 29 C-12.34 28.67 -11.68 28.34 -11 28 C-12.32 27.34 -13.64 26.68 -15 26 Z M-7 26 C-6.67 26.66 -6.34 27.32 -6 28 C-5.01 27.67 -4.02 27.34 -3 27 C-4.32 26.67 -5.64 26.34 -7 26 Z M7 26 C6.01 27.485 6.01 27.485 5 29 C5.99 28.67 6.98 28.34 8 28 C7.67 27.34 7.34 26.68 7 26 Z M-4 28 C-4 28.66 -4 29.32 -4 30 C-3.34 29.67 -2.68 29.34 -2 29 C-2.66 28.67 -3.32 28.34 -4 28 Z M-6 32 C-5 34 -5 34 -5 34 Z " fill="#BD9045" transform="translate(17,1)"/>
<path d="M0 0 C0.33 0.66 0.66 1.32 1 2 C1.66 2 2.32 2 3 2 C2.67 3.32 2.34 4.64 2 6 C2.99 5.67 3.98 5.34 5 5 C3.95652174 11.26086957 3.95652174 11.26086957 2 14 C-0.625 14.75 -0.625 14.75 -3 15 C-3.04898437 15.71027344 -3.09796875 16.42054687 -3.1484375 17.15234375 C-3.22320313 18.07144531 -3.29796875 18.99054687 -3.375 19.9375 C-3.44460937 20.85402344 -3.51421875 21.77054688 -3.5859375 22.71484375 C-3.72257812 23.46894531 -3.85921875 24.22304688 -4 25 C-4.66 25.33 -5.32 25.66 -6 26 C-6 27.65 -6 29.3 -6 31 C-6.99 30.67 -7.98 30.34 -9 30 C-9 31.32 -9 32.64 -9 34 C-9.99 33.67 -10.98 33.34 -12 33 C-11.67 32.01 -11.34 31.02 -11 30 C-11.66 30 -12.32 30 -13 30 C-13.02578125 29.01257813 -13.0515625 28.02515625 -13.078125 27.0078125 C-13.13484375 25.72648437 -13.1915625 24.44515625 -13.25 23.125 C-13.29640625 21.84882812 -13.3428125 20.57265625 -13.390625 19.2578125 C-13.62128548 15.93595687 -13.62128548 15.93595687 -15.91015625 14.64453125 C-16.59980469 14.43183594 -17.28945313 14.21914063 -18 14 C-20.98077914 12.04120228 -21.84247385 11.47257844 -23 8 C-22.1654738 5.49642139 -21.20628008 3.33214148 -20 1 C-18.9171875 1.8971875 -18.9171875 1.8971875 -17.8125 2.8125 C-15.08685797 5.0352811 -15.08685797 5.0352811 -12.1875 6.625 C-11.465625 7.07875 -10.74375 7.5325 -10 8 C-10 8.66 -10 9.32 -10 10 C-6.04 7.525 -6.04 7.525 -2 5 C-2.33 4.34 -2.66 3.68 -3 3 C-2.01 2.01 -1.02 1.02 0 0 Z M-21 6 C-20.01 7.485 -20.01 7.485 -19 9 C-18.34 8.67 -17.68 8.34 -17 8 C-18.32 7.34 -19.64 6.68 -21 6 Z M1 6 C0.01 7.485 0.01 7.485 -1 9 C-0.01 8.67 0.98 8.34 2 8 C1.67 7.34 1.34 6.68 1 6 Z M-12 12 C-11 14 -11 14 -11 14 Z " fill="#0A4222" transform="translate(23,21)"/>
<path d="M0 0 C2.97 0.495 2.97 0.495 6 1 C6 1.66 6 2.32 6 3 C7.32 2.67 8.64 2.34 10 2 C10.33 7.28 10.66 12.56 11 18 C7.0234755 18 5.9109833 16.61988497 3 14 C0.16219455 10.87234744 -0.35317889 8.94719856 -0.1875 4.75 C-0.16042969 3.85796875 -0.13335938 2.9659375 -0.10546875 2.046875 C-0.07066406 1.37140625 -0.03585938 0.6959375 0 0 Z M8 4 C9 6 9 6 9 6 Z " fill="#AB823C" transform="translate(5,11)"/>
<path d="M0 0 C0.33 0.66 0.66 1.32 1 2 C1.66 2 2.32 2 3 2 C2.67 3.32 2.34 4.64 2 6 C2.99 5.67 3.98 5.34 5 5 C3.95652174 11.26086957 3.95652174 11.26086957 2 14 C-0.625 14.75 -0.625 14.75 -3 15 C-3.04898437 15.71027344 -3.09796875 16.42054687 -3.1484375 17.15234375 C-3.22320313 18.07144531 -3.29796875 18.99054687 -3.375 19.9375 C-3.44460937 20.85402344 -3.51421875 21.77054688 -3.5859375 22.71484375 C-3.72257812 23.46894531 -3.85921875 24.22304688 -4 25 C-4.66 25.33 -5.32 25.66 -6 26 C-6.66 26.99 -7.32 27.98 -8 29 C-8.17455021 25.75068073 -8.28091753 22.50256552 -8.375 19.25 C-8.42527344 18.32960938 -8.47554687 17.40921875 -8.52734375 16.4609375 C-8.67307052 9.75750589 -8.67307052 9.75750589 -6.63769531 7.46679688 C-4.9765625 6.359375 -4.9765625 6.359375 -2 5 C-2.33 4.34 -2.66 3.68 -3 3 C-2.01 2.01 -1.02 1.02 0 0 Z M1 6 C0.01 7.485 0.01 7.485 -1 9 C-0.01 8.67 0.98 8.34 2 8 C1.67 7.34 1.34 6.68 1 6 Z " fill="#10753B" transform="translate(23,21)"/>
<path d="M0 0 C1 1 1 1 1.25 3.875 C1 7 1 7 -0.3125 8.6875 C-0.869375 9.120625 -1.42625 9.55375 -2 10 C-2.556875 10.556875 -3.11375 11.11375 -3.6875 11.6875 C-4.3371875 12.3371875 -4.3371875 12.3371875 -5 13 C-7.5 11.875 -7.5 11.875 -10 10 C-10.5625 7.0625 -10.5625 7.0625 -10 4 C-7.18331645 -0.11669134 -4.84699254 -0.53855473 0 0 Z " fill="#EADF13" transform="translate(17,1)"/>
<path d="M0 0 C4.44793016 1.66075315 7.8223603 3.42705584 11 7 C12.45201088 12.84750772 11.62040433 19.07795871 11 25 C10.67 25 10.34 25 10 25 C9.97421875 24.01257813 9.9484375 23.02515625 9.921875 22.0078125 C9.86515625 20.72648437 9.8084375 19.44515625 9.75 18.125 C9.70359375 16.84882812 9.6571875 15.57265625 9.609375 14.2578125 C9.37871452 10.93595687 9.37871452 10.93595687 7.08984375 9.64453125 C6.40019531 9.43183594 5.71054688 9.21914063 5 9 C2.01922086 7.04120228 1.15752615 6.47257844 0 3 C0 2.01 0 1.02 0 0 Z " fill="#0E6C37" transform="translate(0,26)"/>
<path d="M0 0 C0.33 0.66 0.66 1.32 1 2 C1.66 2 2.32 2 3 2 C2.67 3.32 2.34 4.64 2 6 C2.99 5.67 3.98 5.34 5 5 C4.44271087 8.34373475 3.64826111 11.03312999 2 14 C1.34 14 0.68 14 0 14 C0 13.01 0 12.02 0 11 C-1.65 10.67 -3.3 10.34 -5 10 C-4.625 8.0625 -4.625 8.0625 -4 6 C-3.34 5.67 -2.68 5.34 -2 5 C-2.33 4.34 -2.66 3.68 -3 3 C-2.01 2.01 -1.02 1.02 0 0 Z M1 6 C0.01 7.485 0.01 7.485 -1 9 C-0.01 8.67 0.98 8.34 2 8 C1.67 7.34 1.34 6.68 1 6 Z " fill="#0E6131" transform="translate(23,21)"/>
<path d="M0 0 C1 3 1 3 1 5 C1.66 5 2.32 5 3 5 C3 9.62 3 14.24 3 19 C2.34 19.33 1.68 19.66 1 20 C1 15.71 1 11.42 1 7 C-0.32 7.33 -1.64 7.66 -3 8 C-2.74438677 5.6568787 -2.40729228 3.32156597 -2 1 C-1.34 0.67 -0.68 0.34 0 0 Z " fill="#A48631" transform="translate(20,2)"/>
<path d="M0 0 C1.84619835 1.03998511 3.67673494 2.107814 5.5 3.1875 C6.5209375 3.77917969 7.541875 4.37085938 8.59375 4.98046875 C11 7 11 7 11.34375 9.73828125 C11.2303125 10.48464844 11.116875 11.23101562 11 12 C9.15380165 10.96001489 7.32326506 9.892186 5.5 8.8125 C4.4790625 8.22082031 3.458125 7.62914062 2.40625 7.01953125 C0 5 0 5 -0.34375 2.26171875 C-0.2303125 1.51535156 -0.116875 0.76898437 0 0 Z " fill="#128040" transform="translate(2,22)"/>
<path d="M0 0 C0.66 0 1.32 0 2 0 C2.33 5.28 2.66 10.56 3 16 C-0 16 -0 16 -1.6875 14.5 C-2.120625 14.005 -2.55375 13.51 -3 13 C-2.01 13 -1.02 13 0 13 C0 12.31292969 0 11.62585937 0 10.91796875 C0 7.27864583 0 3.63932292 0 0 Z " fill="#4C431E" transform="translate(13,13)"/>
<path d="M0 0 C0.33 0 0.66 0 1 0 C1.02578125 0.84304687 1.0515625 1.68609375 1.078125 2.5546875 C1.13484375 3.65039062 1.1915625 4.74609375 1.25 5.875 C1.29640625 6.96554688 1.3428125 8.05609375 1.390625 9.1796875 C1.68846128 12.1332065 1.68846128 12.1332065 4.046875 13.3828125 C4.69140625 13.58648437 5.3359375 13.79015625 6 14 C5.67 14.66 5.34 15.32 5 16 C4.34 15.67 3.68 15.34 3 15 C3 16.32 3 17.64 3 19 C2.01 18.67 1.02 18.34 0 18 C0 12.06 0 6.12 0 0 Z " fill="#042913" transform="translate(11,36)"/>
<path d="M0 0 C2.64 1.65 5.28 3.3 8 5 C6.02 5.99 6.02 5.99 4 7 C2 5.75 2 5.75 0 4 C0 2.68 0 1.36 0 0 Z " fill="#09552C" transform="translate(2,22)"/>
<path d="M0 0 C0.33 0.66 0.66 1.32 1 2 C0.34 1.67 -0.32 1.34 -1 1 C-0.67 0.67 -0.34 0.34 0 0 Z " fill="#082011" transform="translate(27,46)"/>
<path d="M0 0 C0.99 0.495 0.99 0.495 2 1 C1.01 1.495 1.01 1.495 0 2 C0 1.34 0 0.68 0 0 Z " fill="#000000" transform="translate(8,1)"/>
<path d="" fill="#000000" transform="translate(0,0)"/>
<path d="M0 0 C2 1 2 1 2 1 Z " fill="#000000" transform="translate(3,34)"/>
<path d="M0 0 C2 1 2 1 2 1 Z " fill="#000000" transform="translate(18,1)"/>
<path d="" fill="#000000" transform="translate(0,0)"/>
<path d="" fill="#000000" transform="translate(0,0)"/>
<path d="" fill="#000000" transform="translate(0,0)"/>
<path d="" fill="#000000" transform="translate(0,0)"/>
<path d="" fill="#000000" transform="translate(0,0)"/>
<path d="" fill="#000000" transform="translate(0,0)"/>
<path d="" fill="#000000" transform="translate(0,0)"/>
<path d="" fill="#000000" transform="translate(0,0)"/>
<path d="" fill="#000000" transform="translate(0,0)"/>
<path d="" fill="#000000" transform="translate(0,0)"/>
<path d="" fill="#000000" transform="translate(0,0)"/>
<path d="" fill="#000000" transform="translate(0,0)"/>
<path d="" fill="#000000" transform="translate(0,0)"/>
<path d="" fill="#000000" transform="translate(0,0)"/>
<path d="" fill="#000000" transform="translate(0,0)"/>
<path d="" fill="#000000" transform="translate(0,0)"/>
<path d="" fill="#000000" transform="translate(0,0)"/>
<path d="" fill="#000000" transform="translate(0,0)"/>
<path d="" fill="#000000" transform="translate(0,0)"/>
<path d="" fill="#000000" transform="translate(0,0)"/>
<path d="" fill="#000000" transform="translate(0,0)"/>
<path d="" fill="#000000" transform="translate(0,0)"/>
<path d="" fill="#000000" transform="translate(0,0)"/>
<path d="" fill="#000000" transform="translate(0,0)"/>
</svg>
